<svg xmlns="http://www.w3.org/2000/svg" xmlns:xlink="http://www.w3.org/1999/xlink" width="697" zoomAndPan="magnify" viewBox="0 0 522.75 492.749982" height="657" preserveAspectRatio="xMidYMid meet" version="1.0"><defs><clipPath id="305357887a"><path d="M 0.0078125 0 L 522.492188 0 L 522.492188 492.5 L 0.0078125 492.5 Z M 0.0078125 0 " clip-rule="nonzero"/></clipPath><clipPath id="06f537eba2"><path d="M 149 34 L 522.492188 34 L 522.492188 492.5 L 149 492.5 Z M 149 34 " clip-rule="nonzero"/></clipPath><clipPath id="a255e1fb4a"><path d="M 305.5 -33.113281 L 601.648438 377.460938 L 345.570312 562.167969 L 49.425781 151.589844 Z M 305.5 -33.113281 " clip-rule="nonzero"/></clipPath><clipPath id="abab46249b"><path d="M 305.5 -33.113281 L 601.648438 377.460938 L 345.570312 562.167969 L 49.425781 151.589844 Z M 305.5 -33.113281 " clip-rule="nonzero"/></clipPath><clipPath id="bf1e2ade98"><path d="M 0.0078125 0 L 328 0 L 328 259 L 0.0078125 259 Z M 0.0078125 0 " clip-rule="nonzero"/></clipPath><clipPath id="057a3ff59a"><path d="M 197.066406 0 L 522.492188 0 L 522.492188 322.492188 L 197.066406 322.492188 Z M 197.066406 0 " clip-rule="nonzero"/></clipPath></defs><g clip-path="url(#305357887a)"><path fill="#ffffff" d="M 0.0078125 0 L 522.742188 0 L 522.742188 492.734375 L 0.0078125 492.734375 Z M 0.0078125 0 " fill-opacity="1" fill-rule="nonzero"/><path fill="#ffffff" d="M 0.0078125 0 L 522.742188 0 L 522.742188 492.734375 L 0.0078125 492.734375 Z M 0.0078125 0 " fill-opacity="1" fill-rule="nonzero"/></g><g clip-path="url(#06f537eba2)"><g clip-path="url(#a255e1fb4a)"><g clip-path="url(#abab46249b)"><path fill="#072c75" d="M 181.136719 284.027344 C 164.640625 239.214844 147 193.089844 149.425781 145.398438 C 150.640625 121.554688 157.113281 97.675781 170.285156 77.765625 C 183.460938 57.855469 203.660156 42.183594 226.898438 36.703125 C 242.164062 33.105469 258.496094 33.976562 273.203125 39.433594 C 287.023438 44.5625 299.113281 53.515625 310.011719 63.441406 C 320.914062 73.363281 330.808594 84.339844 341.585938 94.394531 C 374.582031 125.1875 415.253906 146.8125 448.339844 177.515625 C 475.152344 202.398438 496.667969 233.210938 509.40625 267.503906 C 522.144531 301.796875 525.949219 339.566406 518.855469 375.453125 C 512.34375 408.417969 496.445312 439.78125 472.183594 463.027344 C 447.921875 486.269531 415.164062 500.976562 381.570312 501.574219 C 355.160156 502.046875 328.945312 493.9375 306.273438 480.378906 C 283.601562 466.824219 264.363281 447.976562 248.582031 426.792969 C 217.023438 384.425781 199.386719 333.605469 181.136719 284.027344 Z M 181.136719 284.027344 " fill-opacity="1" fill-rule="nonzero"/></g></g></g><g clip-path="url(#bf1e2ade98)"><path fill="#84bc26" d="M 189.464844 -60.476562 C 176.125 -57.761719 167.785156 -55.042969 159.453125 -47.289062 C 132.769531 -23.632812 130.546875 -1.527344 109.988281 31.050781 C 83.863281 73.324219 71.636719 78.363281 37.734375 107.847656 C 33.285156 111.335938 29.949219 114.832031 26.066406 118.320312 C -5.613281 145.855469 -33.964844 198.988281 1.609375 233.117188 C 8.835938 239.710938 16.613281 245.144531 27.179688 250.566406 C 37.179688 255.609375 46.632812 261.425781 61.082031 257.550781 C 71.089844 254.839844 80.535156 248.238281 89.429688 243.589844 C 98.882812 238.550781 108.328125 233.117188 119.996094 230.789062 C 131.109375 228.460938 147.238281 227.300781 158.90625 229.628906 C 182.808594 234.285156 216.710938 264.535156 258.953125 244.367188 C 317.316406 216.445312 291.1875 171.449219 311.199219 125.296875 C 318.425781 108.230469 334.542969 82.246094 324.535156 58.195312 C 318.417969 42.683594 308.417969 38.027344 302.300781 32.59375 C 298.964844 29.488281 305.636719 30.65625 295.074219 25.226562 C 290.625 22.898438 277.84375 10.488281 273.394531 3.503906 C 270.613281 -0.761719 268.945312 -5.417969 266.722656 -11.234375 C 258.9375 -33.730469 245.601562 -43.425781 225.035156 -54.667969 C 213.367188 -60.875 204.46875 -63.203125 189.464844 -60.484375 Z M 189.464844 -60.476562 " fill-opacity="1" fill-rule="evenodd"/></g><g clip-path="url(#057a3ff59a)"><path fill="#072c75" d="M 497.894531 311.558594 C 505.523438 315.355469 513.964844 317.878906 522.503906 318.824219 L 522.503906 322.488281 C 521.261719 322.363281 520.023438 322.199219 518.789062 322.007812 C 492.269531 317.34375 475.074219 304.414062 465.875 278.871094 C 462.613281 268.664062 461.953125 257.863281 459.84375 247.398438 C 458.402344 239.96875 456.167969 232.746094 452.886719 226.078125 C 444.695312 210.667969 432.699219 197.996094 420.496094 185.855469 C 413.152344 178.691406 405.15625 171.617188 398.46875 163.910156 C 385.125 149.140625 375.09375 131.722656 367.875 113.222656 C 361.796875 99.363281 356.058594 84.574219 345.789062 73.253906 C 334.550781 60.464844 318.101562 53.585938 301.738281 50.136719 C 262.082031 41.648438 232.90625 59.742188 205.304688 18.746094 C 201.792969 13.359375 199.472656 7.320312 197.511719 1.226562 C 197.378906 0.816406 197.253906 0.410156 197.128906 0 L 200.957031 0 C 202.226562 3.996094 203.6875 7.9375 205.484375 11.726562 C 210.308594 20.925781 217.359375 29.082031 225.835938 35.09375 C 233.925781 40.675781 243.820312 42.769531 253.480469 43.441406 C 267.632812 44.039062 281.890625 43.019531 295.929688 45.402344 C 318.574219 48.738281 340.964844 58.484375 354.210938 77.90625 C 366.40625 95.820312 371.820312 117.265625 382.6875 135.882812 C 389.320312 147.605469 397.820312 158.332031 407.15625 167.921875 C 423.5625 183.949219 440.988281 199.421875 453.171875 219.09375 C 459.855469 229.839844 462.992188 242.316406 464.800781 254.722656 C 467.054688 270.058594 468.46875 280.472656 477.371094 293.765625 C 482.496094 301.46875 489.59375 307.652344 497.890625 311.558594 Z M 239.875 19.480469 C 246.113281 22.554688 253.03125 24.035156 259.972656 24.035156 C 272.964844 24.035156 286.035156 18.851562 294.84375 9.242188 C 297.496094 6.40625 299.894531 3.308594 301.941406 0 L 297.597656 0 C 292.253906 7.949219 284.707031 14.574219 275.539062 17.636719 C 260.304688 23.214844 241.332031 20.355469 230.277344 7.855469 C 228.183594 5.53125 226.496094 2.851562 225.113281 0 L 221.070312 0 C 224.898438 8.425781 231.164062 15.5625 239.875 19.480469 Z M 326.039062 26.945312 C 328.039062 28.007812 329.859375 28.476562 331.535156 28.476562 C 341.160156 28.472656 345.867188 12.972656 350.261719 5.597656 C 351.253906 3.707031 352.269531 1.828125 353.367188 0 L 349.148438 0 C 348.671875 0.84375 348.210938 1.691406 347.757812 2.542969 C 344.167969 8.328125 339.09375 23.367188 332.457031 24.746094 C 328.617188 25.394531 325.320312 22.28125 323.285156 19.363281 C 319.824219 13.953125 318.261719 6.851562 318.171875 0 L 314.535156 0 C 314.660156 10.386719 317.832031 21.972656 326.039062 26.945312 Z M 474.875 180.871094 C 463.976562 183.386719 452.246094 180.207031 444.019531 172.644531 C 440.476562 169.472656 437.402344 165.875 434.265625 162.308594 C 425.09375 151.058594 412.648438 142.265625 404.304688 130.246094 C 400.097656 123.96875 397.332031 116.902344 393.921875 110.183594 C 391.214844 104.777344 388.175781 99.46875 384.9375 94.28125 C 378.898438 84.535156 372.027344 75.179688 368.296875 64.214844 C 362.015625 45.910156 363.316406 25.6875 368.183594 7.082031 C 368.792969 4.707031 369.476562 2.355469 370.15625 0 L 366.359375 0 C 363.476562 9.84375 361.238281 19.90625 360.695312 30.171875 C 359.007812 54.628906 364.960938 71.140625 378.660156 91.160156 C 383.320312 98.421875 387.777344 105.816406 391.550781 113.582031 C 394.804688 120.183594 397.597656 127.0625 401.855469 133.109375 C 403.988281 136.15625 406.398438 139.003906 408.941406 141.710938 C 416.582031 149.519531 424.835938 156.710938 431.878906 165.101562 C 440.28125 175.144531 449.175781 183.585938 462.800781 185.136719 C 464.179688 185.277344 465.566406 185.347656 466.953125 185.347656 C 475.332031 185.347656 483.714844 182.808594 490.722656 178.230469 C 497.894531 173.574219 503.316406 167.234375 510.433594 162.296875 C 514.007812 159.792969 518.207031 158.105469 522.503906 157.664062 L 522.503906 153.933594 C 521.199219 154.035156 519.902344 154.253906 518.636719 154.59375 C 501.21875 159.1875 494.484375 177.335938 474.875 180.871094 Z M 508.25 185.535156 C 497.285156 198.1875 488.839844 213.394531 485.003906 229.773438 C 483.195312 237.792969 483.265625 246.929688 488.683594 253.625 C 491.453125 257.046875 495.617188 258.679688 499.480469 260.519531 C 502.597656 262.007812 505.179688 264.382812 506.683594 267.539062 C 508.429688 271.414062 509.023438 276.011719 511.28125 279.710938 C 513.773438 283.976562 517.804688 287.453125 522.5 289.035156 L 522.5 285.125 C 519.550781 283.855469 516.9375 281.660156 515.140625 279.027344 C 510.789062 272.308594 511.839844 264.414062 504.425781 259.257812 C 500.425781 256.269531 495.058594 255.375 491.683594 251.53125 C 482.195312 239.519531 491.300781 220.234375 497.027344 208.105469 C 500.90625 200.890625 505.683594 194.125 511.007812 187.90625 C 514.460938 184.171875 517.964844 180.125 522.5 177.71875 L 522.5 173.714844 C 516.878906 176.042969 512.257812 181.035156 508.25 185.535156 Z M 499.226562 133.410156 C 480.246094 143.445312 469.125 161.695312 446.105469 146.632812 C 439.234375 141.941406 434.246094 135.113281 429.621094 128.3125 C 421.179688 116.0625 414.617188 102.6875 407.5 89.660156 C 400.335938 76.398438 391.199219 63.53125 390.183594 47.957031 C 389.769531 40.953125 390.722656 33.855469 392.960938 27.207031 C 395.320312 19.996094 399.242188 13.074219 399.359375 5.328125 C 399.46875 4.492188 399.300781 2.441406 398.902344 0 L 395.226562 0 C 395.40625 1.109375 395.550781 2.222656 395.671875 3.324219 C 396.230469 13.757812 389.402344 22.6875 387.683594 32.746094 C 383.585938 51.742188 389.96875 66.792969 399.5 82.808594 C 408.832031 99.003906 416.65625 116.089844 427.363281 131.464844 C 433.628906 140.777344 441.324219 149.898438 452.144531 153.878906 C 455.996094 155.347656 459.523438 155.984375 462.824219 155.984375 C 473.203125 155.984375 481.339844 149.710938 490.257812 143.441406 C 499.203125 137.148438 508.933594 130.859375 522.5 130.898438 L 522.5 127.269531 C 521.398438 127.269531 520.289062 127.308594 519.1875 127.386719 C 512.179688 127.847656 505.398438 130.128906 499.226562 133.414062 Z M 491.382812 106.9375 C 484.03125 111.058594 477.957031 117.234375 470.460938 121.128906 C 464.945312 123.898438 457.636719 125.042969 452.359375 121.066406 C 442.089844 113.121094 437.433594 100.097656 433.226562 88.242188 C 431.164062 82.300781 429.320312 76.273438 426.855469 70.414062 C 424.980469 65.988281 422.773438 61.765625 420.605469 57.476562 C 417.253906 50.8125 413.539062 43.152344 416.5625 35.652344 C 417.910156 31.894531 419.957031 28.425781 422.121094 25.085938 C 425.664062 19.894531 429.984375 14.792969 430.902344 8.367188 C 431.273438 6.703125 431.164062 3.421875 430.640625 0 L 426.96875 0 C 427.167969 1.195312 427.320312 2.394531 427.453125 3.574219 C 427.960938 8.707031 425.789062 13.546875 422.882812 17.65625 C 418.949219 23.226562 414.789062 29 412.746094 35.625 C 409.347656 45.851562 415.722656 55.523438 420.054688 64.4375 C 428.410156 80.5 430.941406 99.230469 441.253906 114.402344 C 445.550781 120.671875 451.574219 127.046875 459.667969 127.328125 C 459.929688 127.339844 460.191406 127.34375 460.453125 127.34375 C 471.832031 127.34375 480.300781 118.675781 489.164062 112.65625 C 498.664062 105.734375 510.929688 102.660156 522.503906 104.664062 L 522.503906 100.996094 C 521.0625 100.753906 519.609375 100.574219 518.148438 100.480469 C 508.867188 99.960938 499.363281 102.136719 491.382812 106.941406 Z M 513.777344 67.917969 C 501.101562 64.824219 497.015625 53.484375 481.53125 54.992188 C 477.664062 55.222656 473.90625 56.160156 470.132812 56.960938 C 468.113281 57.308594 465.96875 57.894531 463.949219 57.277344 C 456.039062 53.867188 457.535156 35.09375 457.125 27.648438 C 457.011719 20.332031 456.609375 12.855469 453.621094 6.066406 C 453.308594 5.097656 452.085938 2.675781 450.488281 0 L 446.246094 0 C 447.320312 1.617188 448.300781 3.296875 449.15625 5.046875 C 453.800781 13.832031 453.402344 23.96875 453.566406 33.621094 C 453.898438 42.472656 453.503906 60.269531 465.375 61.191406 C 472.222656 60.976562 478.761719 57.984375 485.699219 58.59375 C 490.640625 58.824219 495.019531 61.339844 498.898438 64.230469 C 504.222656 68.15625 510.207031 71.921875 517.042969 71.921875 C 517.097656 71.921875 517.15625 71.921875 517.210938 71.921875 C 519 71.921875 520.773438 71.667969 522.503906 71.234375 L 522.503906 67.46875 C 519.671875 68.289062 516.707031 68.527344 513.777344 67.917969 Z M 488.964844 31.304688 C 477.566406 24.023438 472.582031 16.800781 471.558594 3.101562 C 471.484375 2.070312 471.433594 1.035156 471.382812 0 L 469.921875 0 C 469.976562 1.066406 470.027344 2.125 470.109375 3.234375 C 471.164062 18.125 477.050781 25.601562 489.417969 33.351562 C 499.609375 39.632812 510.210938 47.386719 522.5 48.230469 L 522.5 46.738281 C 510.699219 46.199219 498.402344 37.15625 488.964844 31.304688 Z M 498.695312 83.695312 C 489.09375 85.984375 479.285156 89.210938 469.316406 87.160156 C 460.605469 85.347656 453.304688 79.234375 448.152344 72.171875 C 444.566406 66.757812 442.191406 60.558594 440.855469 54.203125 C 436.898438 36.511719 442.539062 17.570312 438.695312 0 L 437.183594 0 C 439.472656 10.316406 438.5625 21.320312 438.019531 31.851562 C 437.621094 41.765625 438.007812 51.902344 441.304688 61.355469 C 445.652344 74.890625 457.078125 87.207031 471.652344 89.023438 C 473.097656 89.199219 474.535156 89.277344 475.96875 89.277344 C 484.972656 89.277344 493.746094 86.15625 502.511719 84.335938 C 509.054688 82.84375 515.902344 82.589844 522.5 83.714844 L 522.5 82.21875 C 514.632812 80.957031 506.429688 81.648438 498.695312 83.695312 Z M 332.6875 6.617188 C 333.113281 6.828125 333.519531 6.925781 333.90625 6.925781 C 335.820312 6.925781 337.28125 4.621094 338.253906 3.0625 C 338.457031 2.71875 338.328125 2.261719 337.992188 2.0625 C 337.183594 1.625 336.828125 2.65625 336.460938 3.171875 C 333.28125 8.058594 331.789062 4.070312 331.46875 0 L 329.957031 0 C 330.160156 2.820312 331.003906 5.660156 332.6875 6.617188 Z M 325.035156 42.195312 C 326.511719 42.726562 327.96875 42.96875 329.390625 42.96875 C 335.886719 42.96875 341.714844 37.992188 345.847656 33.097656 C 349.960938 28.417969 353.4375 23.355469 356.226562 17.730469 C 359.128906 12.167969 360.925781 6.136719 362.308594 0 L 360.847656 0 C 358.792969 8.832031 355.582031 17.398438 350.363281 24.894531 C 345.988281 30.945312 340.710938 38.160156 333.449219 40.84375 C 325.148438 43.703125 317.859375 36.746094 313.597656 30.296875 C 308.613281 23.140625 306.78125 14.039062 308.726562 5.496094 C 309.070312 3.625 309.574219 1.800781 310.148438 0 L 308.621094 0 C 308.089844 1.738281 307.628906 3.496094 307.285156 5.28125 C 305.234375 14.269531 307.28125 23.996094 312.648438 31.488281 C 315.785156 35.957031 319.71875 40.367188 325.03125 42.195312 Z M 501.09375 180.105469 C 482.089844 195.402344 470.875 210.273438 475.679688 235.835938 C 477.765625 246.367188 481.554688 256.566406 486.664062 265.996094 C 490.082031 272.582031 494.539062 278.582031 500.191406 283.410156 C 507.429688 290.316406 514.210938 298.769531 522.503906 304.59375 L 522.503906 302.777344 C 520.890625 301.597656 519.335938 300.328125 517.832031 299.003906 C 512.199219 294.113281 507.441406 288.351562 502.078125 283.179688 C 499.199219 280.574219 496.398438 277.929688 493.992188 274.855469 C 490.941406 270.980469 488.582031 266.523438 486.273438 262.140625 C 477.910156 244.765625 471.429688 223.492188 480.46875 205.113281 C 485.167969 196.054688 492.78125 188.976562 500.515625 182.472656 C 506.410156 177.859375 514.613281 170.65625 522.503906 167.167969 L 522.503906 165.523438 C 521.160156 166.09375 519.8125 166.800781 518.417969 167.648438 C 512.226562 171.183594 506.632812 175.648438 501.09375 180.105469 Z M 501.09375 180.105469 " fill-opacity="1" fill-rule="nonzero"/></g></svg>