<svg xmlns="http://www.w3.org/2000/svg" xmlns:xlink="http://www.w3.org/1999/xlink" width="697" zoomAndPan="magnify" viewBox="0 0 522.75 492.749982" height="657" preserveAspectRatio="xMidYMid meet" version="1.0"><defs><filter x="0%" y="0%" width="100%" height="100%" id="22fac5ab62"><feColorMatrix values="0 0 0 0 1 0 0 0 0 1 0 0 0 0 1 0 0 0 1 0" color-interpolation-filters="sRGB"/></filter><clipPath id="c9a6c51459"><path d="M 131 140 L 489 140 L 489 492.5 L 131 492.5 Z M 131 140 " clip-rule="nonzero"/></clipPath><clipPath id="d0e6d948cb"><path d="M 129 143 L 478 143 L 478 492.5 L 129 492.5 Z M 129 143 " clip-rule="nonzero"/></clipPath><mask id="4358a78ff1"><g filter="url(#22fac5ab62)"><rect x="-52.275" width="627.3" fill="#000000" y="-49.274998" height="591.299979" fill-opacity="0.3"/></g></mask><clipPath id="863db18689"><path d="M 3 1 L 348 1 L 348 349.5 L 3 349.5 Z M 3 1 " clip-rule="nonzero"/></clipPath><clipPath id="2236dc5f0d"><rect x="0" width="349" y="0" height="350"/></clipPath><clipPath id="e519e18346"><path d="M 164 0 L 456 0 L 456 206.992188 L 164 206.992188 Z M 164 0 " clip-rule="nonzero"/></clipPath><clipPath id="4dd44ecc8a"><path d="M 230.582031 0 L 522.492188 0 L 522.492188 183.855469 L 230.582031 183.855469 Z M 230.582031 0 " clip-rule="nonzero"/></clipPath></defs><g clip-path="url(#c9a6c51459)"><path fill="#072c75" d="M 172.90625 405.242188 C 133.628906 389.824219 122.363281 362.78125 139.113281 324.125 C 155.863281 285.464844 175.261719 248.226562 197.304688 212.40625 C 219.351562 176.585938 251.320312 153.445312 293.214844 142.984375 C 335.109375 132.523438 358.792969 152.796875 364.273438 203.800781 C 369.75 254.804688 394.367188 282.503906 438.128906 286.902344 C 481.886719 291.300781 497.027344 311.105469 483.546875 346.320312 C 470.070312 381.535156 453.921875 416.40625 435.109375 450.925781 C 416.296875 485.449219 387.679688 500.855469 349.253906 497.152344 C 310.828125 493.449219 281.648438 481.058594 261.722656 459.984375 C 241.792969 438.910156 212.1875 420.664062 172.90625 405.242188 Z M 172.90625 405.242188 " fill-opacity="1" fill-rule="nonzero"/></g><g clip-path="url(#d0e6d948cb)"><g mask="url(#4358a78ff1)"><g transform="matrix(1, 0, 0, 1, 129, 143)"><g clip-path="url(#2236dc5f0d)"><g clip-path="url(#863db18689)"><path fill="#072c75" d="M 24.09375 190.265625 C -4.714844 159.453125 -3.230469 130.203125 28.550781 102.515625 C 60.328125 74.824219 93.886719 49.554688 129.21875 26.703125 C 164.554688 3.851562 203.382812 -3.285156 245.703125 5.292969 C 288.023438 13.867188 300.667969 42.351562 283.628906 90.742188 C 266.59375 139.132812 276.875 174.722656 314.476562 197.511719 C 352.078125 220.300781 357.207031 244.6875 329.867188 270.675781 C 302.523438 296.664062 272.921875 321.191406 241.066406 344.261719 C 209.207031 367.328125 176.734375 368.925781 143.648438 349.058594 C 110.5625 329.191406 89.566406 305.460938 80.660156 277.867188 C 71.757812 250.277344 52.898438 221.078125 24.09375 190.265625 Z M 24.09375 190.265625 " fill-opacity="1" fill-rule="nonzero"/></g></g></g></g></g><path fill="#5cd85a" d="M 49.777344 104.632812 C 45.726562 108.222656 41.796875 111.917969 38.074219 115.714844 C 11.269531 143 2.71875 167.800781 12.664062 189.414062 C 21.203125 207.980469 24.214844 233.316406 27.128906 257.820312 C 31.632812 295.695312 36.289062 334.859375 61.292969 349.679688 C 78.410156 359.820312 103.546875 357.984375 138.132812 344.058594 C 149.5 339.476562 159.824219 335.386719 168.933594 331.777344 C 210.089844 315.46875 230.75 307.28125 240.960938 296.691406 C 251.019531 286.257812 251.128906 273.019531 251.335938 246.644531 C 251.433594 234.941406 251.546875 220.375 252.582031 202.378906 C 255.394531 153.570312 271.421875 124.542969 284.304688 101.214844 C 292.132812 87.046875 298.3125 75.847656 299.316406 64.078125 C 300.402344 51.421875 295.265625 39.214844 282.664062 24.5 C 262.523438 0.988281 230.710938 -2.484375 188.125 14.179688 C 157.433594 26.191406 131.980469 44.902344 129.761719 46.554688 C 128.105469 48.847656 122.238281 52.710938 110.527344 60.320312 C 93.9375 71.101562 70.269531 86.484375 49.777344 104.632812 Z M 240.40625 300.601562 C 229.203125 310.523438 208.488281 318.734375 169.835938 334.046875 C 160.726562 337.660156 150.40625 341.746094 139.042969 346.324219 C 103.707031 360.554688 77.867188 362.339844 60.046875 351.78125 C 34.007812 336.347656 29.273438 296.574219 24.703125 258.109375 C 21.816406 233.792969 18.824219 208.652344 10.445312 190.433594 C 0.0351562 167.804688 8.746094 142.089844 36.332031 114 C 59.074219 90.84375 89.238281 71.242188 109.195312 58.273438 C 118.925781 51.953125 126.609375 46.960938 127.839844 45.039062 C 127.917969 44.917969 128.015625 44.8125 128.132812 44.726562 C 128.394531 44.527344 154.949219 24.542969 187.234375 11.90625 C 206.261719 4.460938 223.539062 0.980469 238.59375 1.558594 C 257.550781 2.285156 273 9.472656 284.515625 22.914062 C 312.375 55.4375 302.058594 74.117188 286.445312 102.398438 C 273.679688 125.507812 257.792969 154.269531 255.023438 202.519531 C 253.988281 220.453125 253.871094 234.984375 253.78125 246.664062 C 253.5625 273.6875 253.453125 287.253906 242.71875 298.390625 C 241.996094 299.136719 241.226562 299.871094 240.40625 300.601562 " fill-opacity="1" fill-rule="nonzero"/><path fill="#5cd85a" d="M 157.378906 57.085938 C 150.832031 67.289062 10.15625 136.285156 40.066406 201.3125 C 69.976562 266.335938 30.976562 411.390625 167.101562 356.574219 C 303.222656 301.761719 276.082031 322.15625 282.316406 213.832031 C 288.542969 105.511719 361.570312 92.84375 312.101562 35.089844 C 262.632812 -22.664062 157.378906 57.085938 157.378906 57.085938 " fill-opacity="1" fill-rule="nonzero"/><g clip-path="url(#e519e18346)"><path fill="#072c75" d="M 164.035156 1.140625 C 171.320312 23.144531 182.382812 43.792969 196.5625 62.117188 C 210.742188 80.394531 227.996094 96.308594 247.484375 108.800781 C 269.261719 122.742188 293.492188 132.515625 318.382812 139.3125 C 331.421875 142.863281 344.636719 145.402344 357.9375 147.859375 C 371.414062 150.359375 384.9375 152.855469 397.972656 157.152344 C 419.574219 164.210938 441.128906 177.230469 451.441406 198.269531 C 452.714844 200.855469 453.726562 203.488281 454.605469 206.203125 C 454.867188 206.992188 456.140625 206.6875 455.878906 205.855469 C 449.25 185.03125 431.46875 170.039062 412.066406 161.183594 C 387.65625 150.050781 360.441406 147.726562 334.496094 141.941406 C 308.902344 136.242188 283.746094 127.78125 260.699219 115.15625 C 239.363281 103.453125 220.226562 88.066406 204.332031 69.613281 C 188.878906 51.683594 176.5 31.078125 168.117188 8.898438 C 167.105469 6.179688 166.140625 3.464844 165.21875 0.746094 C 165.042969 0 163.769531 0.308594 164.035156 1.140625 Z M 164.035156 1.140625 " fill-opacity="1" fill-rule="nonzero"/></g><path fill="#072c75" d="M 212.761719 38.3125 C 229.222656 79.34375 270.050781 103.015625 311.140625 113.667969 C 324.308594 117.085938 337.789062 119.367188 351.265625 121.117188 C 352.097656 121.207031 352.097656 119.890625 351.265625 119.804688 C 307.671875 114.148438 262.0625 101.4375 232.121094 67.15625 C 224.570312 58.476562 218.335938 48.65625 214.035156 37.960938 C 213.726562 37.171875 212.453125 37.523438 212.761719 38.3125 Z M 212.761719 38.3125 " fill-opacity="1" fill-rule="nonzero"/><path fill="#072c75" d="M 245.203125 53.128906 C 251.261719 63.824219 259.996094 72.722656 270.578125 78.992188 C 271.324219 79.429688 271.980469 78.292969 271.234375 77.851562 C 260.832031 71.714844 252.269531 62.992188 246.34375 52.472656 C 245.949219 51.726562 244.808594 52.382812 245.203125 53.128906 Z M 245.203125 53.128906 " fill-opacity="1" fill-rule="nonzero"/><g clip-path="url(#4dd44ecc8a)"><path fill="#072c75" d="M 230.90625 -22 C 238.191406 0.00390625 249.257812 20.652344 263.4375 38.976562 C 277.613281 57.253906 294.867188 73.167969 314.359375 85.660156 C 336.132812 99.601562 360.367188 109.375 385.257812 116.171875 C 398.292969 119.722656 411.507812 122.265625 424.808594 124.71875 C 438.289062 127.21875 451.808594 129.714844 464.847656 134.011719 C 486.445312 141.070312 508 154.089844 518.316406 175.128906 C 519.589844 177.71875 520.597656 180.347656 521.476562 183.066406 C 521.738281 183.855469 523.011719 183.546875 522.75 182.714844 C 516.121094 161.890625 498.339844 146.898438 478.9375 138.046875 C 454.53125 126.910156 427.3125 124.585938 401.367188 118.800781 C 375.773438 113.101562 350.621094 104.640625 327.574219 92.015625 C 306.238281 80.3125 287.097656 64.925781 271.207031 46.472656 C 255.753906 28.542969 243.375 7.941406 234.988281 -14.242188 C 233.980469 -16.960938 233.011719 -19.675781 232.089844 -22.394531 C 231.914062 -23.140625 230.644531 -22.832031 230.90625 -22 Z M 230.90625 -22 " fill-opacity="1" fill-rule="nonzero"/></g><path fill="#072c75" d="M 279.632812 15.171875 C 296.097656 56.203125 336.921875 79.875 378.011719 90.527344 C 391.183594 93.945312 404.660156 96.226562 418.136719 97.980469 C 418.972656 98.066406 418.972656 96.75 418.136719 96.664062 C 374.546875 91.007812 328.933594 78.296875 298.996094 44.015625 C 291.445312 35.335938 285.210938 25.519531 280.90625 14.820312 C 280.601562 14.03125 279.328125 14.382812 279.632812 15.171875 Z M 279.632812 15.171875 " fill-opacity="1" fill-rule="nonzero"/><path fill="#072c75" d="M 312.078125 29.988281 C 318.132812 40.683594 326.871094 49.585938 337.449219 55.851562 C 338.195312 56.292969 338.855469 55.152344 338.109375 54.714844 C 327.703125 48.574219 319.144531 39.851562 313.21875 29.332031 C 312.824219 28.585938 311.679688 29.246094 312.078125 29.988281 Z M 312.078125 29.988281 " fill-opacity="1" fill-rule="nonzero"/></svg>