<?xml version="1.0" standalone="no"?>
<!DOCTYPE svg PUBLIC "-//W3C//DTD SVG 20010904//EN"
 "http://www.w3.org/TR/2001/REC-SVG-20010904/DTD/svg10.dtd">
<svg version="1.0" xmlns="http://www.w3.org/2000/svg"
 width="512.000000pt" height="340.000000pt" viewBox="0 0 512.000000 340.000000"
 preserveAspectRatio="xMidYMid meet">

<g transform="translate(0.000000,340.000000) scale(0.100000,-0.100000)"
fill="#000000" stroke="none">
<path d="M2947 3329 c-55 -13 -108 -43 -142 -81 l-30 -33 30 26 c47 42 108 68
192 83 65 12 71 14 33 14 -25 0 -62 -4 -83 -9z"/>
<path d="M3013 3265 c-117 -25 -219 -103 -276 -209 l-22 -41 -3 58 -3 57 -889
0 -890 0 -1 -677 0 -678 -34 126 c-19 69 -71 222 -116 340 -80 211 -167 461
-190 549 -6 25 -14 40 -16 33 -7 -20 48 -197 124 -398 19 -49 59 -154 88 -232
113 -300 147 -459 143 -673 l-3 -144 -41 55 c-22 30 -64 94 -94 143 -71 119
-98 147 -180 190 -73 39 -180 79 -188 72 -4 -5 46 -28 89 -41 53 -16 161 -80
189 -111 16 -18 52 -72 80 -120 28 -47 73 -115 100 -151 44 -58 50 -72 50
-115 0 -43 -2 -48 -17 -39 -10 5 -38 30 -63 56 -43 45 -117 92 -127 81 -3 -2
10 -12 28 -21 37 -20 174 -145 174 -160 0 -6 -92 -12 -245 -15 -135 -3 63 -5
440 -5 377 0 490 1 253 2 l-433 3 0 960 0 960 881 0 881 0 -7 -102 c-8 -131
-8 -172 0 -285 7 -87 6 -93 -11 -93 -11 0 -43 -11 -72 -25 -62 -29 -72 -30
-72 -11 0 7 -7 20 -16 27 -13 11 -15 25 -9 79 4 36 11 68 17 71 11 7 12 37 9
167 l-3 92 -63 0 -64 0 -3 -42 c-2 -36 -8 -45 -32 -57 -18 -8 -31 -10 -35 -3
-3 5 -21 8 -38 6 -31 -3 -33 -2 -35 29 0 17 -1 38 -1 45 1 30 -16 8 -22 -29
-5 -29 -13 -43 -27 -47 -13 -3 -18 -11 -15 -23 3 -12 0 -19 -10 -19 -10 0 -13
-6 -9 -16 3 -9 2 -12 -5 -9 -17 11 -5 93 19 120 32 37 27 45 -26 45 -36 0 -60
-7 -93 -28 -24 -16 -58 -32 -74 -36 -52 -13 -94 -70 -45 -61 12 2 20 -2 20
-10 0 -8 -9 -19 -20 -25 -14 -8 -20 -21 -20 -45 0 -35 0 -35 -44 -35 -30 0
-46 -5 -50 -15 -3 -9 -18 -15 -33 -15 -69 0 -124 -12 -119 -26 3 -8 -2 -15
-12 -16 -9 0 -23 -2 -30 -2 -8 -1 -20 -9 -27 -19 -11 -15 -13 -16 -19 -2 -3 9
-18 15 -35 15 -28 0 -59 29 -45 43 3 3 -1 14 -8 26 -10 16 -10 25 -1 39 7 12
8 24 1 35 -5 10 -6 22 -3 27 3 6 2 10 -3 10 -5 0 -12 -10 -15 -21 -6 -22 -25
-23 -71 -4 -17 7 -18 6 -11 -11 5 -10 10 -41 13 -67 l4 -49 -26 17 c-24 16
-26 22 -24 89 1 70 1 70 8 21 6 -47 7 -47 8 -12 1 23 6 36 12 32 5 -3 10 1 10
10 0 12 6 15 20 10 11 -3 20 -2 20 4 0 20 -53 50 -98 57 -26 4 -58 14 -72 24
-24 16 -132 40 -180 40 -19 0 -21 -4 -16 -26 l7 -26 -35 22 -36 21 0 -730 0
-730 454 -1 c250 0 457 3 459 7 3 5 7 24 9 43 3 31 1 35 -19 32 -41 -6 -32 16
10 23 23 4 34 10 25 12 -19 5 -25 25 -7 21 6 -2 14 3 17 11 3 10 0 12 -12 8
-9 -4 -16 -2 -16 3 0 5 -8 11 -17 13 -10 3 -1 5 20 6 24 1 36 5 32 12 -4 6
-13 8 -21 5 -7 -3 -16 -1 -19 4 -4 6 -18 10 -32 10 -19 0 -24 -4 -19 -17 11
-27 -16 -34 -37 -10 -19 22 -19 22 10 28 43 10 170 10 155 0 -19 -12 50 -22
102 -15 26 4 57 0 86 -11 135 -49 185 -55 196 -22 12 38 64 96 112 124 53 31
62 41 55 60 -3 8 2 13 12 13 9 0 25 5 35 10 18 10 17 13 -21 47 -39 36 -99
137 -99 168 0 11 12 15 49 15 55 0 67 10 51 40 -9 16 -8 19 6 13 14 -5 16 -2
10 21 -4 15 -4 49 0 77 l7 50 28 -42 c33 -50 75 -85 112 -94 29 -8 35 3 15 24
-9 9 -2 8 19 -3 18 -9 56 -16 86 -16 29 0 58 -5 63 -10 8 -8 15 -6 24 5 21 25
59 19 71 -12 20 -54 -17 -113 -71 -113 -17 0 -30 -5 -30 -12 0 -24 -41 -82
-49 -70 -5 8 -16 3 -35 -17 -16 -16 -50 -39 -77 -51 -51 -21 -52 -23 -41 -52
6 -15 16 -9 67 36 45 40 70 54 98 58 36 4 38 3 32 -19 -13 -55 75 -9 106 54
25 52 33 55 26 7 -4 -25 -2 -34 6 -31 81 26 9 450 -96 565 -11 12 -17 22 -13
22 5 0 72 -20 150 -44 77 -25 173 -54 212 -65 132 -38 178 -94 157 -192 -9
-47 -9 -49 11 -43 37 11 87 55 104 90 11 25 21 33 31 28 109 -45 383 -125 444
-130 90 -8 171 13 220 56 68 60 137 232 137 344 0 145 -115 274 -333 376 -115
53 -478 185 -590 214 -170 45 -374 57 -494 31z m-93 -100 c0 -5 -5 -3 -10 5
-8 12 -10 12 -10 1 0 -8 -2 -12 -5 -9 -3 3 -2 13 1 22 5 14 9 15 15 4 5 -7 9
-17 9 -23z m106 -20 c19 -29 11 -60 -21 -81 -51 -33 -106 29 -75 86 16 30 74
28 96 -5z m84 -55 c7 -11 -6 -70 -16 -70 -2 0 -2 17 -1 38 3 46 -21 51 -41 9
-18 -37 -25 -29 -11 10 8 25 15 31 36 28 14 -1 29 -8 33 -15z m96 -48 c-15
-44 -20 -49 -43 -46 -33 3 -45 16 -41 44 4 32 33 48 57 33 17 -11 21 -9 26 8
4 11 9 18 12 15 3 -2 -2 -27 -11 -54z m72 -4 c16 -16 16 -51 0 -45 -41 15 -58
17 -58 8 0 -14 32 -29 50 -23 12 4 13 2 3 -8 -10 -11 -18 -11 -38 -2 -40 19
-29 82 15 82 9 0 21 -5 28 -12z m122 -43 c6 -7 19 -11 29 -8 10 3 22 0 26 -7
9 -15 -3 -80 -15 -80 -5 0 -4 14 2 31 19 55 -22 66 -43 12 -5 -14 -12 -24 -15
-21 -2 3 0 18 6 33 8 21 8 30 -2 36 -16 10 -27 2 -39 -28 -13 -36 -21 -23 -9
13 11 32 41 42 60 19z m-2340 -21 c0 -8 -4 -12 -10 -9 -5 3 -10 10 -10 16 0 5
5 9 10 9 6 0 10 -7 10 -16z m3099 -24 c43 -23 96 -60 121 -87 l45 -46 -50 41
c-28 23 -86 62 -130 87 -98 56 -90 59 14 5z m-3069 20 c0 -5 -2 -10 -4 -10 -3
0 -8 5 -11 10 -3 6 -1 10 4 10 6 0 11 -4 11 -10z m988 -12 c-2 -18 -11 -24
-35 -26 -40 -4 -42 8 -5 30 36 23 44 22 40 -4z m746 -35 c10 15 22 27 28 27 5
0 -3 -15 -19 -34 -15 -19 -31 -32 -35 -30 -4 3 -7 24 -7 47 l2 42 6 -40 6 -40
19 28z m720 15 c15 -24 -3 -52 -37 -56 -33 -4 -53 28 -37 59 14 25 58 23 74
-3z m-2487 -121 c-2 -23 -3 -1 -3 48 0 50 1 68 3 42 2 -26 2 -67 0 -90z m1423
123 c0 -5 -4 -10 -8 -10 -7 0 -32 -42 -32 -54 0 -10 40 -12 44 -2 2 6 5 3 5
-7 1 -13 -5 -17 -21 -15 -14 2 -22 -2 -20 -9 1 -7 -2 -13 -8 -13 -5 0 -10 -5
-10 -11 0 -5 5 -7 12 -3 7 4 8 3 4 -4 -13 -21 -26 -13 -26 16 0 56 -20 -2 -21
-63 0 -33 -4 -85 -9 -115 -5 -36 -6 -11 -3 74 2 71 5 132 8 134 3 3 5 16 5 29
0 13 9 32 20 43 21 21 60 27 60 10z m386 -41 c-8 -19 -15 -29 -15 -22 -1 18
19 67 25 61 3 -3 -2 -21 -10 -39z m753 12 c0 -10 -2 -11 -6 -3 -9 22 -34 12
-45 -19 -6 -16 -12 -28 -15 -25 -3 2 0 20 6 39 10 29 15 33 36 29 15 -2 25
-11 24 -21z m-1329 0 c0 -4 -16 -12 -35 -18 -32 -10 -35 -9 -35 9 0 14 5 18
15 15 8 -4 17 -2 20 3 6 10 35 2 35 -9z m620 -25 c0 -18 2 -18 27 5 l27 24
-23 -32 c-12 -18 -26 -33 -31 -33 -11 0 -20 26 -20 58 0 21 2 24 10 12 5 -8
10 -24 10 -34z m-750 19 c0 -8 -4 -15 -10 -15 -5 0 -7 7 -4 15 4 8 8 15 10 15
2 0 4 -7 4 -15z m-884 -26 c8 -1 20 -2 27 -3 17 -1 26 -17 20 -34 -5 -11 -10
-9 -25 9 -11 13 -17 18 -13 12 9 -18 -10 -16 -25 2 -7 8 -16 12 -21 9 -5 -3
-9 4 -9 16 0 19 1 20 16 6 8 -9 22 -17 30 -17z m2424 11 c8 -14 8 -26 0 -40
-19 -35 -80 -20 -80 20 0 40 61 55 80 20z m-1678 -5 c0 -5 -5 -11 -11 -13 -6
-2 -11 4 -11 13 0 9 5 15 11 13 6 -2 11 -8 11 -13z m1006 3 c25 -25 14 -41
-24 -33 -45 8 -43 -16 2 -27 27 -6 27 -6 -6 -5 -28 2 -36 6 -38 25 -6 42 37
69 66 40z m88 -29 c3 -5 14 -9 24 -9 10 0 22 -5 25 -10 9 -14 -4 -70 -16 -70
-5 0 -4 11 1 26 14 37 13 44 -10 44 -13 0 -24 -10 -31 -26 -5 -15 -12 -25 -15
-22 -2 3 0 17 5 31 5 14 7 28 4 31 -15 15 -35 4 -45 -25 -6 -16 -12 -28 -15
-25 -3 2 0 20 6 39 10 29 15 33 36 29 14 -2 28 -8 31 -13z m-1917 -2 c6 -8 8
-17 5 -20 -10 -9 -45 13 -39 24 9 13 21 11 34 -4z m-44 -155 c6 -128 5 -141
-9 -136 -9 3 -13 10 -10 15 3 5 -2 9 -10 9 -14 0 -16 19 -16 131 0 84 4 128
10 124 6 -3 10 -1 10 6 0 8 3 9 9 4 5 -6 12 -74 16 -153z m892 152 c-3 -3 -12
-4 -19 -1 -8 3 -5 6 6 6 11 1 17 -2 13 -5z m207 -37 c7 -5 4 -6 -7 -3 -10 3
-21 6 -23 6 -2 0 -4 10 -4 23 1 21 1 21 12 2 6 -11 16 -24 22 -28z m1593 31
c7 -12 12 -88 5 -88 -1 0 -10 4 -20 9 -9 5 -25 12 -34 15 -33 10 -21 36 17 36
19 0 35 4 35 9 0 13 -27 21 -47 14 -11 -4 -14 -3 -9 5 10 16 43 15 53 0z m91
-38 c5 -13 3 -13 -12 -1 -26 22 -32 4 -7 -23 22 -23 22 -25 4 -34 -20 -11 -53
1 -53 19 0 5 9 4 20 -3 28 -18 37 -2 10 20 -14 11 -20 24 -16 31 10 16 48 10
54 -9z m-667 0 c10 -6 19 -20 19 -30 0 -23 0 -23 -35 -10 -23 9 -26 8 -23 -7
2 -11 12 -18 26 -17 12 0 22 -3 22 -8 0 -14 -38 -9 -54 8 -20 19 -20 24 0 52
17 25 19 26 45 12z m440 -13 c-10 -9 -11 -8 -5 6 3 10 9 15 12 12 3 -3 0 -11
-7 -18z m-2211 -3 c0 -8 -4 -14 -9 -14 -5 0 -12 -8 -14 -17 -4 -15 -5 -14 -6
3 0 11 -6 25 -12 31 -7 7 -3 11 15 11 15 0 26 -6 26 -14z m750 -6 c0 -7 5 -20
10 -28 9 -13 11 -13 20 0 7 11 10 6 10 -20 0 -30 -3 -35 -25 -36 -18 -1 -25 3
-25 16 0 10 -3 32 -6 49 -4 20 -3 31 5 31 6 0 11 -6 11 -12z m1155 -8 c-5 -15
-2 -20 13 -20 24 0 45 -23 40 -46 -5 -25 -31 -38 -63 -30 -23 6 -27 11 -22 34
8 37 25 82 32 82 4 0 3 -9 0 -20z m-1376 -14 c-2 -2 -14 -7 -26 -10 -17 -5
-23 -3 -23 8 0 17 30 27 44 14 5 -4 8 -9 5 -12z m1332 7 c13 -16 12 -17 -4 -4
-13 10 -21 11 -28 4 -8 -8 -5 -14 10 -22 24 -14 28 -39 6 -47 -16 -7 -45 12
-45 28 0 5 7 2 16 -6 8 -9 20 -13 26 -9 7 4 3 13 -11 25 -14 10 -21 24 -17 33
7 20 30 19 47 -2z m686 -3 c4 -12 3 -13 -5 -1 -12 17 -30 6 -43 -26 -14 -37
-21 -22 -8 16 9 24 16 31 32 29 11 -2 22 -10 24 -18z m-2745 -44 c-8 -29 -7
-35 8 -39 13 -3 16 -13 14 -48 -1 -24 -4 -52 -6 -63 -5 -21 -66 -46 -113 -46
l-31 0 3 101 c2 118 11 135 75 137 23 1 44 5 47 8 11 10 12 -15 3 -50z m2769
11 c-13 -34 9 -56 33 -32 9 9 16 23 16 31 0 8 4 14 9 14 5 0 4 -15 -2 -35 -8
-29 -14 -34 -33 -31 -29 6 -44 14 -44 26 0 16 21 63 26 58 2 -3 0 -17 -5 -31z
m-1633 -36 c0 -32 -4 -54 -14 -61 -12 -10 -14 -8 -14 16 0 22 3 26 10 14 8
-12 10 -12 10 5 0 11 -4 26 -9 34 -5 8 -7 20 -4 28 11 27 20 11 21 -36z m-563
29 c3 -5 1 -10 -4 -10 -6 0 -11 5 -11 10 0 6 2 10 4 10 3 0 8 -4 11 -10z m855
0 c0 -5 19 -23 42 -40 32 -23 36 -30 21 -30 -11 0 -35 -3 -52 -6 l-31 -6 0 46
c0 25 5 46 10 46 6 0 10 -4 10 -10z m754 -31 c-6 -37 -5 -41 12 -37 10 2 25
16 32 31 18 37 25 29 11 -11 -8 -23 -17 -32 -34 -32 -35 0 -47 21 -34 59 15
43 21 39 13 -10z m714 33 c7 -5 11 -24 10 -45 -3 -36 -4 -37 -33 -31 -38 8
-49 18 -41 40 5 12 14 15 37 10 22 -4 29 -2 26 7 -2 6 -14 12 -26 11 -11 0
-21 3 -21 8 0 10 31 10 48 0z m-2268 -72 c0 -66 -16 -80 -37 -33 -18 37 -16
45 7 38 17 -5 20 -2 20 24 0 17 2 31 5 31 3 0 5 -27 5 -60z m-430 40 c0 -5 -4
-10 -10 -10 -5 0 -10 5 -10 10 0 6 5 10 10 10 6 0 10 -4 10 -10z m39 3 c0 -5
-4 -17 -9 -28 -8 -18 -9 -17 -9 8 -1 15 4 27 9 27 6 0 10 -3 9 -7z m341 -8 c0
-8 -4 -15 -9 -15 -13 0 -22 16 -14 24 11 11 23 6 23 -9z m1729 -14 c0 -10 -2
-11 -6 -3 -9 22 -34 12 -45 -19 -6 -16 -12 -28 -15 -25 -3 2 0 20 6 39 10 29
15 33 36 29 15 -2 25 -11 24 -21z m677 11 c1 -7 0 -8 -3 -2 -5 11 -33 14 -33
4 0 -3 10 -14 22 -23 23 -19 18 -41 -11 -41 -19 0 -41 19 -41 35 0 5 5 2 11
-7 10 -18 39 -25 39 -10 0 4 -9 15 -20 25 -12 10 -18 22 -14 28 8 14 47 7 50
-9z m-2543 -40 c-6 -13 -8 -13 -14 4 -4 10 -8 26 -8 34 0 12 3 11 14 -3 7 -11
11 -26 8 -35z m1942 -19 c0 -48 1 -47 -44 -32 -20 7 -31 18 -31 30 0 15 7 19
37 19 40 0 36 15 -7 23 -17 3 -13 5 10 4 34 -2 35 -3 35 -44z m93 -8 c2 -18 2
-18 -8 -2 -13 21 -33 22 -50 2 -19 -23 5 -46 44 -40 17 2 43 4 59 4 35 1 36
21 0 21 -20 0 -24 3 -16 11 8 8 17 8 32 -1 17 -9 21 -19 19 -50 -3 -36 -5 -39
-28 -33 -14 3 -32 13 -40 22 -8 9 -25 15 -38 13 -43 -6 -69 37 -40 66 19 19
62 11 66 -13z m-2100 -6 c37 -13 32 -34 -5 -24 -16 4 -22 2 -18 -5 3 -5 -2
-11 -12 -11 -10 -1 -22 -2 -28 -4 -5 -1 -19 -3 -29 -3 -35 -3 30 -52 67 -51
l32 1 -33 8 c-33 8 -67 30 -46 30 6 0 16 -6 22 -12 8 -8 15 -9 20 -3 8 12 272
14 272 2 0 -5 -18 -7 -40 -6 -44 4 -62 -6 -31 -16 22 -7 81 -61 81 -74 0 -4
14 -8 30 -9 64 -4 64 -4 46 -17 -8 -7 -13 -15 -9 -19 3 -3 15 1 25 11 10 9 21
13 25 10 3 -4 1 -7 -5 -7 -7 0 -8 -10 -2 -30 11 -37 3 -38 -35 -2 -33 31 -52
40 -102 48 -24 4 -33 2 -31 -8 5 -20 33 -37 67 -40 29 -2 30 -4 15 -15 -10 -7
-12 -13 -6 -13 7 0 12 -4 12 -10 0 -6 -9 -6 -22 -1 -13 5 -32 5 -43 0 l-20 -8
20 -1 c11 -1 32 -2 48 -2 15 -1 27 -5 27 -11 0 -5 11 -7 25 -5 14 3 25 1 25
-3 0 -5 -15 -9 -32 -10 l-33 -1 33 -14 c18 -8 50 -13 70 -10 20 2 45 -1 55 -6
11 -5 17 -5 17 2 0 5 10 9 23 9 16 -1 18 -2 5 -6 -20 -5 -24 -23 -6 -23 9 0 8
-3 -1 -12 -10 -10 -15 -10 -18 -2 -5 15 -43 6 -43 -11 0 -14 75 -40 105 -36
l20 3 -20 -16 c-19 -15 -19 -15 15 -16 23 0 30 -3 22 -9 -11 -6 -9 -9 6 -14
18 -4 19 -2 12 18 -9 22 -8 23 21 8 17 -8 33 -12 37 -9 3 4 -4 9 -16 13 -29 7
-28 21 1 16 30 -6 34 -43 5 -43 -14 0 -18 -5 -14 -16 5 -14 2 -15 -21 -9 -16
3 -41 8 -58 10 -16 2 -37 6 -46 10 -10 3 -20 2 -24 -4 -3 -6 0 -11 7 -11 7 -1
0 -7 -17 -14 l-30 -13 38 -7 c21 -4 45 -10 52 -12 10 -4 12 0 8 15 -3 13 -1
21 7 21 6 0 14 -9 17 -20 6 -24 23 -27 23 -3 0 13 10 7 38 -20 37 -36 40 -37
110 -37 58 0 72 -3 72 -15 0 -12 -13 -15 -64 -14 -64 2 -136 -15 -136 -32 0
-5 11 -9 25 -9 14 0 25 -4 25 -9 0 -14 -42 -25 -49 -13 -4 6 -27 14 -51 17
-25 4 -58 12 -74 18 -24 9 -31 8 -42 -8 -8 -10 -14 -15 -14 -11 0 5 -6 4 -12
-1 -14 -10 -68 -10 -84 0 -6 3 -39 7 -75 8 -35 1 -71 7 -81 12 -11 8 -41 7
-95 -1 -43 -7 -95 -12 -115 -12 -26 0 -38 -4 -38 -14 0 -17 -19 -25 -39 -18
-9 4 -6 9 10 18 l24 14 -22 6 c-13 3 -23 10 -23 15 0 5 6 6 13 3 7 -2 24 0 38
5 18 7 0 10 -73 10 -54 1 -98 3 -98 6 0 2 5 16 12 30 12 26 28 34 28 13 0 -9
3 -9 9 1 7 11 10 10 14 -5 4 -18 5 -18 6 1 1 12 13 25 29 32 62 27 81 32 87
23 10 -16 25 -11 19 5 -5 12 2 15 39 14 26 -1 44 -6 41 -11 -3 -4 -3 -8 0 -8
2 0 12 -3 22 -7 12 -4 15 -3 10 5 -11 18 42 36 60 21 19 -16 18 1 -2 29 -15
22 -60 47 -77 44 -4 -1 -12 9 -19 23 -11 25 -65 44 -87 30 -6 -3 -11 -3 -11 0
0 3 24 17 53 31 l52 25 -40 -6 c-22 -4 -51 -9 -64 -12 -22 -5 -23 -4 -10 9 7
9 21 13 29 11 13 -4 13 -4 0 6 -8 5 -25 8 -37 5 -14 -4 -32 2 -49 15 -15 12
-23 22 -18 22 14 2 27 5 52 14 l22 7 -24 25 c-17 17 -31 23 -45 18 -12 -4 -30
0 -43 9 -12 9 -30 16 -40 16 -17 0 -37 45 -25 57 4 3 41 0 84 -6 49 -7 89 -8
108 -3 l30 9 -37 16 c-21 9 -38 20 -38 25 0 12 76 82 89 82 4 0 22 -5 39 -11z
m606 -10 c-3 -6 0 -15 7 -20 10 -6 11 -9 2 -9 -7 0 -13 -7 -13 -15 0 -8 -9
-15 -20 -15 -15 0 -19 5 -16 23 2 12 9 21 15 20 6 -2 11 4 11 12 0 8 5 15 11
15 5 0 7 -5 3 -11z m1678 -56 c-17 -49 -17 -50 -50 -41 -30 8 -33 12 -30 41 2
25 8 33 26 35 13 2 29 -1 36 -7 11 -9 15 -6 19 11 4 12 9 20 12 17 3 -3 -3
-28 -13 -56z m59 7 c15 -9 19 -20 17 -50 -3 -36 -5 -39 -28 -33 -57 13 -64 53
-9 53 16 0 29 5 29 10 0 6 -12 10 -26 10 -14 0 -23 4 -19 10 8 13 12 12 36 0z
m-1816 -30 c-3 -5 -16 -10 -28 -9 -20 1 -20 2 3 9 14 4 26 8 28 9 2 1 0 -3 -3
-9z m152 -12 c-3 -8 -6 -5 -6 6 -1 11 2 17 5 13 3 -3 4 -12 1 -19z m1747 16
c9 -3 16 -11 16 -16 0 -6 -6 -6 -14 1 -9 8 -16 8 -20 2 -4 -5 3 -16 15 -25 25
-17 19 -46 -9 -46 -19 0 -42 18 -42 34 0 5 9 1 19 -8 11 -10 25 -15 32 -11 8
6 5 13 -11 25 -15 11 -21 23 -17 34 7 18 9 19 31 10z m52 -35 c-8 -19 -15 -29
-15 -22 -1 18 19 67 25 61 3 -3 -2 -21 -10 -39z m-2041 21 c-3 -5 -23 -9 -43
-9 l-37 2 35 7 c52 11 52 11 45 0z m2071 -31 c-15 -34 -15 -34 -9 -4 7 35 13
48 20 42 2 -3 -3 -20 -11 -38z m-2236 27 c0 -2 -7 -6 -15 -10 -8 -3 -15 -1
-15 4 0 6 7 10 15 10 8 0 15 -2 15 -4z m2270 -41 c-16 -47 -23 -40 -9 9 6 21
13 36 16 33 3 -3 0 -22 -7 -42z m-2200 31 c0 -3 -4 -8 -10 -11 -5 -3 -10 -1
-10 4 0 6 5 11 10 11 6 0 10 -2 10 -4z m-937 -23 c-7 -2 -19 -2 -25 0 -7 3 -2
5 12 5 14 0 19 -2 13 -5z m1014 -109 c-3 -3 -12 -4 -19 -1 -8 3 -5 6 6 6 11 1
17 -2 13 -5z m130 0 c-3 -3 -12 -4 -19 -1 -8 3 -5 6 6 6 11 1 17 -2 13 -5z
m-857 -51 c0 -22 -2 -25 -10 -13 -13 20 -13 40 0 40 6 0 10 -12 10 -27z m716
-11 c-16 -2 -32 0 -37 5 -5 5 7 7 29 4 34 -5 35 -6 8 -9z m199 -19 c18 -14 18
-15 2 -9 -10 3 -31 6 -45 6 -21 0 -24 2 -12 10 21 13 32 12 55 -7z m-936 -30
c-8 -10 -18 -21 -24 -25 -15 -11 -45 -10 -45 2 0 6 9 10 20 10 10 0 25 7 32
15 18 20 33 19 17 -2z m123 -25 c-8 -8 -9 -4 -5 13 4 13 8 18 11 10 2 -7 -1
-18 -6 -23z m788 12 c0 -5 -7 -7 -15 -4 -8 4 -15 8 -15 10 0 2 7 4 15 4 8 0
15 -4 15 -10z m-1011 -34 c-7 -14 -16 -26 -20 -26 -5 0 0 13 9 29 20 36 27 34
11 -3z m406 17 c-11 -3 -25 -9 -31 -14 -8 -6 -14 -4 -18 6 -4 12 2 15 32 14
21 -1 29 -3 17 -6z m576 -3 c5 0 9 -4 9 -8 0 -5 -15 -9 -32 -9 -18 -1 -27 1
-20 4 6 3 9 10 5 16 -4 7 0 8 11 4 10 -4 22 -7 27 -7z m-546 -50 c19 -7 18 -9
-8 -19 -36 -14 -34 -14 -40 9 -6 22 11 25 48 10z m670 -10 c3 -6 -1 -7 -9 -4
-18 7 -21 14 -7 14 6 0 13 -4 16 -10z m40 -40 c4 -7 -3 -8 -22 -4 -38 9 -42
14 -10 14 14 0 29 -5 32 -10z m55 -19 c0 -5 -8 -12 -17 -14 -15 -4 -14 -6 5
-12 36 -12 20 -30 -28 -31 -34 -1 -44 3 -47 17 -3 10 -9 16 -14 13 -5 -3 -9 1
-9 10 0 11 9 13 34 10 19 -2 38 0 41 6 8 13 35 13 35 1z m-1175 -21 c11 -17
-5 -32 -21 -19 -7 6 -11 15 -8 20 7 12 21 11 29 -1z m-22 -45 c15 -3 27 -9 27
-13 0 -9 -46 -8 -90 2 -29 7 -32 10 -15 16 20 7 25 7 78 -5z m133 -32 c-10
-11 -25 18 -18 35 4 13 8 11 15 -6 6 -12 7 -25 3 -29z m994 -23 c0 -5 -9 -10
-19 -10 -11 0 -23 5 -26 10 -4 6 5 10 19 10 14 0 26 -4 26 -10z m37 -6 c-3 -3
-12 -4 -19 -1 -8 3 -5 6 6 6 11 1 17 -2 13 -5z m-217 -50 c0 -2 -9 0 -20 6
-11 6 -20 13 -20 16 0 2 9 0 20 -6 11 -6 20 -13 20 -16z m-720 5 c0 -4 10 -5
23 -2 18 5 20 3 10 -7 -10 -11 -18 -11 -39 -1 -15 7 -30 8 -33 3 -9 -13 -46
-9 -60 6 -11 11 -3 13 43 11 31 -1 56 -6 56 -10z m763 4 c-7 -2 -19 -2 -25 0
-7 3 -2 5 12 5 14 0 19 -2 13 -5z m-113 -23 c12 -8 12 -10 -5 -10 -11 0 -27 5
-35 10 -12 8 -12 10 5 10 11 0 27 -5 35 -10z m-990 -20 c0 -5 -7 -7 -15 -4 -8
4 -12 10 -9 15 6 11 24 2 24 -11z m-20 -24 c0 -17 -26 -39 -40 -34 -6 2 -4 12
5 26 18 25 35 29 35 8z m1075 4 c3 -5 1 -10 -4 -10 -6 0 -11 5 -11 10 0 6 2
10 4 10 3 0 8 -4 11 -10z m-381 -106 c22 -8 20 -23 -1 -19 -10 2 -24 4 -30 4
-7 1 -13 6 -13 11 0 11 20 13 44 4z m-147 -30 c-3 -3 -12 -4 -19 -1 -8 3 -5 6
6 6 11 1 17 -2 13 -5z m243 -54 c0 -5 -5 -10 -11 -10 -5 0 -7 5 -4 10 3 6 8
10 11 10 2 0 4 -4 4 -10z m-40 -34 c-6 -8 -19 -12 -27 -9 -14 6 -14 8 3 14 30
12 37 10 24 -5z m-780 -35 c0 -12 -29 -35 -36 -28 -11 10 5 37 21 37 8 0 15
-4 15 -9z m768 -8 c-10 -2 -26 -2 -35 0 -10 3 -2 5 17 5 19 0 27 -2 18 -5z"/>
<path d="M2938 3134 c-14 -31 -1 -57 31 -62 28 -4 51 14 51 42 0 50 -62 65
-82 20z"/>
<path d="M3140 3055 c-17 -20 -5 -45 20 -45 11 0 23 7 26 15 6 15 -11 45 -26
45 -4 0 -13 -7 -20 -15z"/>
<path d="M3236 3031 c-3 -5 1 -12 10 -15 27 -11 37 -7 24 9 -14 17 -26 19 -34
6z"/>
<path d="M3484 2935 c-8 -21 2 -45 19 -45 21 0 38 25 31 44 -8 20 -43 21 -50
1z"/>
<path d="M3641 2887 c-17 -21 -3 -49 23 -45 15 2 21 10 21 28 0 28 -26 38 -44
17z"/>
<path d="M2980 2881 c0 -9 23 -21 41 -21 4 0 6 7 3 15 -7 16 -44 21 -44 6z"/>
<path d="M3790 2800 c0 -5 11 -10 25 -10 14 0 25 5 25 10 0 6 -11 10 -25 10
-14 0 -25 -4 -25 -10z"/>
<path d="M3240 2791 c0 -5 9 -11 20 -14 13 -3 20 0 20 9 0 8 -9 14 -20 14 -11
0 -20 -4 -20 -9z"/>
<path d="M3394 2735 c-8 -21 2 -45 19 -45 8 0 20 7 27 15 10 12 10 18 0 30 -7
8 -19 15 -27 15 -7 0 -16 -7 -19 -15z"/>
<path d="M4145 2690 c-8 -13 20 -24 36 -15 8 6 7 10 -2 16 -18 11 -26 11 -34
-1z"/>
<path d="M3623 2628 c2 -7 12 -13 22 -13 10 0 20 6 23 13 2 7 -6 12 -23 12
-17 0 -25 -5 -22 -12z"/>
<path d="M3803 2568 c2 -7 10 -13 17 -13 7 0 15 6 18 13 2 7 -5 12 -18 12 -13
0 -20 -5 -17 -12z"/>
<path d="M1738 2538 c5 -5 16 -8 23 -6 8 3 3 7 -10 11 -17 4 -21 3 -13 -5z"/>
<path d="M1700 2530 c0 -6 7 -13 15 -17 24 -9 27 1 5 15 -13 8 -20 8 -20 2z"/>
<path d="M1837 2513 c-4 -3 -7 -11 -7 -17 0 -6 5 -5 12 2 6 6 9 14 7 17 -3 3
-9 2 -12 -2z"/>
<path d="M1481 2446 c2 -2 22 -6 44 -9 27 -4 35 -3 25 3 -14 9 -79 15 -69 6z"/>
<path d="M1657 2434 c-25 -14 -26 -16 -12 -31 14 -13 20 -14 41 -2 23 12 24
14 7 20 -16 7 -17 8 0 8 9 1 17 6 17 11 0 14 -20 12 -53 -6z"/>
<path d="M1694 2383 c9 -9 56 -13 56 -4 0 5 -14 9 -30 9 -17 -1 -29 -3 -26 -5z"/>
<path d="M1580 2359 c-12 -9 -11 -10 8 -6 12 3 22 1 22 -3 0 -7 17 -7 40 0 7
2 -32 18 -45 19 -5 0 -17 -4 -25 -10z"/>
<path d="M1670 2350 c-11 -7 -4 -10 25 -10 29 0 36 3 25 10 -8 5 -19 10 -25
10 -5 0 -17 -5 -25 -10z"/>
<path d="M1839 2335 c-3 -2 -21 -5 -41 -7 -22 -1 -34 -6 -31 -14 2 -6 -9 -14
-28 -18 -22 -4 -30 -10 -25 -21 3 -8 0 -15 -7 -15 -7 0 6 -18 28 -40 38 -37
65 -50 65 -31 0 10 19 9 37 -2 7 -4 22 -3 33 3 26 14 26 20 -2 12 -12 -3 -19
-1 -15 5 3 5 -6 8 -22 5 -16 -2 -32 1 -35 7 -4 6 -15 11 -25 11 -43 0 2 89 46
91 25 1 63 17 42 18 -9 1 -18 -1 -20 -4z"/>
<path d="M1720 2319 c0 -5 5 -7 10 -4 6 3 10 8 10 11 0 2 -4 4 -10 4 -5 0 -10
-5 -10 -11z"/>
<path d="M2018 2253 c6 -2 18 -2 25 0 6 3 1 5 -13 5 -14 0 -19 -2 -12 -5z"/>
<path d="M1995 2230 c-3 -5 2 -10 12 -11 15 0 14 -2 -4 -11 -37 -18 -27 -28
25 -27 26 1 39 3 30 6 -11 3 -18 14 -18 29 0 17 -6 24 -19 24 -11 0 -23 -4
-26 -10z"/>
<path d="M1645 2083 c18 -17 65 -37 65 -28 0 2 -19 13 -42 25 -38 19 -41 20
-23 3z"/>
<path d="M1626 2053 c-11 -11 -6 -23 9 -23 8 0 15 4 15 9 0 13 -16 22 -24 14z"/>
<path d="M2165 1999 c-24 -5 -20 -7 23 -8 28 0 52 1 52 3 0 8 -47 11 -75 5z"/>
<path d="M1890 1990 c8 -5 20 -10 25 -10 6 0 3 5 -5 10 -8 5 -19 10 -25 10 -5
0 -3 -5 5 -10z"/>
<path d="M3894 2565 c-8 -21 2 -45 19 -45 20 0 40 27 33 45 -7 19 -45 20 -52
0z"/>
<path d="M3983 2508 c2 -7 10 -13 17 -13 7 0 15 6 18 13 2 7 -5 12 -18 12 -13
0 -20 -5 -17 -12z"/>
<path d="M2301 3035 c8 -7 78 -9 85 -2 4 4 -14 7 -41 7 -27 0 -46 -2 -44 -5z"/>
<path d="M3660 2316 c0 -9 157 -64 200 -70 37 -5 31 -2 -30 18 -41 13 -95 31
-119 40 -47 17 -51 18 -51 12z"/>
<path d="M2657 2233 c-13 -12 -7 -26 6 -15 6 5 21 12 32 15 16 4 15 5 -6 6
-14 0 -29 -2 -32 -6z"/>
<path d="M2980 2210 c-10 -19 -6 -24 14 -21 5 1 6 -8 3 -20 -5 -17 -3 -19 6
-10 9 9 8 16 -2 33 -11 17 -11 22 1 29 9 6 9 9 1 9 -7 0 -17 -9 -23 -20z"/>
<path d="M2686 2173 c-3 -3 -6 -15 -6 -25 0 -24 22 -19 26 5 2 18 -9 30 -20
20z"/>
<path d="M2550 2120 c0 -11 5 -20 10 -20 6 0 10 9 10 20 0 11 -4 20 -10 20 -5
0 -10 -9 -10 -20z"/>
<path d="M2598 2095 c-3 -14 -2 -27 1 -30 4 -2 8 10 9 26 3 36 -4 38 -10 4z"/>
<path d="M2701 2064 c-19 -13 -29 -24 -23 -24 6 0 24 11 39 25 35 31 28 31
-16 -1z"/>
<path d="M2105 1730 c-3 -6 1 -7 9 -4 18 7 21 14 7 14 -6 0 -13 -4 -16 -10z"/>
<path d="M1993 1705 c0 -8 4 -15 9 -15 4 0 8 4 8 9 0 6 -4 12 -8 15 -5 3 -9
-1 -9 -9z"/>
<path d="M2210 1680 c0 -15 7 -20 25 -20 l25 0 -20 20 c-11 11 -22 20 -25 20
-3 0 -5 -9 -5 -20z"/>
<path d="M2270 1679 c0 -4 6 -10 13 -12 10 -4 10 -6 0 -6 -27 -2 -11 -21 27
-32 45 -14 60 -7 42 21 -9 15 -8 19 6 23 12 3 11 5 -5 6 -13 0 -23 -3 -23 -9
0 -5 -5 -10 -11 -10 -5 0 -8 4 -5 9 3 5 -5 11 -19 13 -14 3 -25 2 -25 -3z"/>
<path d="M2223 1623 c9 -9 20 -13 24 -9 4 4 1 11 -7 16 -25 16 -35 11 -17 -7z"/>
<path d="M395 1623 c-59 -15 -39 -30 109 -79 55 -19 123 -49 151 -67 51 -34
115 -61 115 -49 -1 21 -62 91 -103 119 -82 55 -212 91 -272 76z"/>
<path d="M2294 1609 c-3 -5 3 -12 13 -17 13 -5 6 -9 -27 -13 l-45 -6 51 -1
c47 -2 64 7 64 33 0 8 -51 11 -56 4z"/>
<path d="M2039 1579 c-16 -5 -5 -7 34 -8 31 -1 57 1 57 3 0 8 -67 11 -91 5z"/>
<path d="M1281 1433 c-37 -46 -7 -93 61 -93 l38 0 0 43 c0 74 -58 103 -99 50z
m73 1 c9 -8 16 -28 16 -44 0 -21 -6 -29 -25 -34 -37 -9 -65 9 -65 44 0 44 44
65 74 34z"/>
<path d="M1480 1430 c-35 -18 -49 -30 -40 -33 8 -3 23 -8 33 -11 9 -3 17 -15
17 -26 0 -11 5 -20 10 -20 6 0 10 2 10 4 0 2 11 29 25 60 29 65 24 67 -55 26z
m20 -15 c-7 -8 -18 -15 -24 -15 -6 0 -2 7 8 15 25 19 32 19 16 0z m18 -21 c-7
-15 -14 -21 -16 -15 -2 7 2 18 8 26 18 22 21 18 8 -11z"/>
<path d="M1093 1432 c-8 -19 15 -60 43 -79 19 -12 25 -11 53 13 24 20 31 34
29 53 -3 25 -6 26 -61 27 -45 2 -60 -2 -64 -14z m54 -3 c8 -8 13 -8 17 0 12
18 46 13 46 -7 0 -25 -45 -66 -64 -59 -21 8 -49 54 -41 67 8 13 28 13 42 -1z"/>
<path d="M2268 1443 c7 -3 16 -2 19 1 4 3 -2 6 -13 5 -11 0 -14 -3 -6 -6z"/>
<path d="M2450 1256 c0 -9 161 -500 166 -505 11 -11 -1 28 -76 261 -68 210
-90 269 -90 244z"/>
<path d="M2124 1095 c-15 -23 -15 -30 -2 -63 28 -74 100 -73 106 1 2 28 -3 42
-22 62 -32 32 -61 32 -82 0z"/>
<path d="M1725 1028 c-54 -28 -74 -46 -97 -92 -73 -144 82 -409 276 -472 118
-38 224 -113 263 -188 15 -30 11 -40 -22 -50 -11 -3 -4 -3 16 0 27 3 40 -1 54
-16 14 -15 31 -20 68 -20 l51 0 -25 28 c-66 73 -64 64 -20 120 51 64 84 73
141 40 27 -17 36 -28 30 -34 -19 -19 62 -7 169 25 115 34 258 58 285 48 26
-10 17 -59 -14 -74 -18 -9 -20 -13 -7 -13 10 0 17 -8 17 -20 0 -14 -5 -18 -17
-13 -10 4 -14 2 -9 -5 3 -6 -3 -12 -16 -15 l-23 -4 23 -2 c20 -1 21 -3 10 -15
-8 -8 -21 -16 -29 -19 -8 -2 -2 -3 14 -1 21 3 27 -1 27 -16 0 -14 -5 -18 -17
-13 -10 4 -14 2 -9 -5 4 -7 -7 -12 -31 -15 l-38 -4 43 -1 c23 -1 42 -6 42 -10
0 -5 18 -19 40 -31 37 -21 51 -22 158 -19 113 3 121 5 193 40 95 48 170 114
203 180 54 109 25 179 -134 331 -114 108 -217 177 -317 213 -142 50 -206 26
-407 -149 l-55 -48 -314 53 -315 53 -43 127 -43 128 -41 0 c-22 -1 -58 -10
-80 -22z"/>
<path d="M2888 403 c18 -7 15 -30 -5 -42 -10 -6 -13 -11 -7 -11 18 0 37 28 30
45 -3 8 -11 15 -18 14 -10 0 -10 -2 0 -6z"/>
<path d="M1824 335 c-12 -31 5 -64 39 -73 17 -6 41 -13 52 -18 11 -4 17 -3 12
1 -4 5 5 14 20 21 26 10 24 11 -22 7 -49 -4 -50 -4 -25 12 17 11 19 14 5 9
-11 -4 -31 -7 -45 -8 -22 -1 -25 3 -25 32 0 35 -3 40 -11 17z"/>
<path d="M1857 343 c-9 -9 -9 -43 1 -43 4 0 7 11 7 25 0 14 0 25 -1 25 0 0 -4
-3 -7 -7z"/>
<path d="M2005 240 c-19 -8 -19 -9 2 -9 12 -1 30 -4 40 -7 13 -4 15 -3 4 4
-11 8 -11 10 0 15 9 3 6 5 -6 6 -11 0 -29 -4 -40 -9z"/>
<path d="M2083 213 c9 -2 23 -2 30 0 6 3 -1 5 -18 5 -16 0 -22 -2 -12 -5z"/>
<path d="M2830 140 c0 -6 7 -10 15 -10 8 0 15 2 15 4 0 2 -7 6 -15 10 -8 3
-15 1 -15 -4z"/>
</g>
</svg>
